<?xml version="1.0" encoding="UTF-8"?>
<!-- Created with EazyDraw for Mac ( http://www.eazydraw.com/ ) -->

<svg
    version="1.1"
    xmlns:dc="http://purl.org/dc/elements/1.1/"
    xmlns:cc="http://creativecommons.org/ns#"
    xmlns:rdf="http://www.w3.org/1999/02/22-rdf-syntax-ns#"
    xmlns:svg="http://www.w3.org/2000/svg"
    xmlns:xlink="http://www.w3.org/1999/xlink"
    xmlns="http://www.w3.org/2000/svg"
    width="112.190316958"
    height="108.97207106"
    viewBox="0, 0, 112.190316958, 108.97207106"
    preserveAspectRatio="none"
    id="svg2">
   <defs
       id="defs_DAFCF6EE"/>
   <metadata
       id="metadata7">
      <rdf:RDF>
         <cc:Work
             rdf:about="">
            <dc:format>image/svg+xml</dc:format>
            <dc:type rdf:resource="http://purl.org/dc/dcmitype/StillImage"/>
            <dc:title></dc:title>
         </cc:Work>
      </rdf:RDF>
   </metadata>
   <g
       id="layer_Paper"
       style="fill:#000000;fill-opacity:1;stroke:#000000;stroke-opacity:1;fill-rule:nonzero;stroke-linecap:square;stroke-linejoin:miter;stroke-width:1;stroke-miterlimit:10">
      <g
          id="4516338E">
         <path
             id="6BFA486E_join"
             style="fill:#0C1566;stroke:#1D1357;stroke-linecap:round;stroke-linejoin:round"
             d="M73.8991295465,91.4669072518 L79.118856109,105.903354395 L79.4496503942,106.565938852 C107.323892706,93.6676091267 119.464268576,60.6149088755 106.565938852,32.7406665637 C93.6676091267,4.866424251813 60.6149088755,-7.273951618531 32.7406665637,5.624378106309
C4.866424251813,18.5227078311 -7.273951618531,51.5754080823 5.624378106309,79.4496503942 C10.9170832834,90.8875768341 19.9379436963,100.188544293 31.2087310245,105.828423932 L31.7029549249,105.673297633
L38.0683876642,90.8693959603 L37.4668156016,90.3497831435 C31.0683494904,86.7067173767 25.8463128062,81.3083516031 22.4176621091,74.7924747508 C12.4981274882,55.9411913354 19.7387405002,32.6178350438 38.5900239156,22.6983004229
C57.441307331,12.778765802 80.7646636226,20.019378814 90.6841982435,38.8706622294 C100.603732864,57.7219456448 93.3631198524,81.0453019364 74.511836437,90.9648365573"/>
         <path
             style="fill:#F5D448;stroke:#F5D448;stroke-linecap:round;stroke-linejoin:round"
             id="D7F3027E"
             d="M55.3115442715,48.7536362054 C50.3674521265,68.0360423706 45.4233599815,87.3184485357 40.4792678365,106.600854701 C50.2593834456,109.108518545 60.5156293423,109.095608743 70.2894010482,106.563331917 C65.2967821226,87.2934333466 60.304163197,68.023534776 55.3115442715,48.7536362054
z"/>
      </g>
   </g>
</svg>
